
<svg xmlns="http://www.w3.org/2000/svg" version="1.1" xmlns:xlink="http://www.w3.org/1999/xlink" preserveAspectRatio="none" x="0px" y="0px" width="512px" height="512px" viewBox="0 0 512 512">
<defs>
<linearGradient id="Gradient_1" gradientUnits="userSpaceOnUse" x1="255.95" y1="495.01250000000005" x2="255.95" y2="17.087500000000006" spreadMethod="pad">
<stop  offset="0%" stop-color="#498CE9"/>

<stop  offset="100%" stop-color="#FFFFFF"/>
</linearGradient>

<g id="Layer0_0_FILL">
<path fill="url(#Gradient_1)" stroke="none" d="
M 495.05 40.8
Q 495.05 31 488.05 24 481.15 17.1 471.3 17.1
L 40.8 17.1
Q 31 17.1 24 24 17.1 31 17.1 40.8
L 17.1 123.05 199.35 123.05 394.25 123
Q 429.9 123 448.3 140.9 455.45 147.85 459.05 156.6 462.05 163.95 462.05 170.8 462.05 206.3 417.8 228.05 403.9 234.9 387.3 239.5
L 373.45 242.75 384.9 245.15
Q 398.6 248.85 410.05 255.75 446.6 277.8 446.6 323.2 446.6 335 439.4 349.05 432.1 363.25 419.65 375.45 406.3 388.55 390.2 395.95 372.4 404.25 353.9 404.25
L 199.35 404.25 71.05 404.25 163 202.65 226.35 202.65 160.8 346.35 199.35 346.4 277.6 346.45
Q 283.2 346.4 290.3 343.75 298.85 340.65 305.85 334.85 324.5 319.4 325 291.95 325.4 265.8 303.8 250.25 297 245.35 288.85 242.2
L 282 239.9
Q 309.45 230.35 323.45 216.05 335.6 203.75 335.9 190.2 336.2 178 327.1 169.5 318.15 161 305.05 161
L 199.35 161 17.1 161 17.1 471.3
Q 17.1 481.15 24 488.05 31 495.05 40.8 495.05
L 471.3 495.05
Q 481.15 495.05 488.05 488.05 495.05 481.15 495.05 471.3
L 495.05 40.8 Z"/>
</g>
</defs>

<g transform="matrix( 1, 0, 0, 1, 0,0) ">
<use xlink:href="#Layer0_0_FILL"/>
</g>
</svg>
