
<svg xmlns="http://www.w3.org/2000/svg" version="1.1" xmlns:xlink="http://www.w3.org/1999/xlink" preserveAspectRatio="none" x="0px" y="0px" width="720px" height="720px" viewBox="0 0 720 720">
<defs>
<linearGradient id="Gradient_1" gradientUnits="userSpaceOnUse" x1="358.65" y1="687.075" x2="358.65" y2="35.02499999999998" spreadMethod="pad">
<stop  offset="0%" stop-color="#498CE9"/>

<stop  offset="100%" stop-color="#FFFFFF"/>
</linearGradient>

<linearGradient id="Gradient_2" gradientUnits="userSpaceOnUse" x1="0.05" y1="155.95000000000002" x2="0.05" y2="-233.95000000000002" spreadMethod="pad">
<stop  offset="0%" stop-color="#84A5E8"/>

<stop  offset="100%" stop-color="#FFFFFF"/>
</linearGradient>

<g id="Mask_2_MASK_0_FILL">
<path fill="#FFFFFF" stroke="none" d="
M 675.3 44.45
Q 665.85 35 652.45 35
L 65.1 35
Q 51.7 35 42.2 44.45 32.75 53.95 32.75 67.35
L 32.75 179.55 547.35 179.45
Q 596 179.45 621.1 203.9 630.8 213.35 635.7 225.35 639.85 235.35 639.85 244.7 639.85 293.15 579.4 322.85 560.45 332.15 537.8 338.4
L 518.95 342.9 534.5 346.1
Q 553.2 351.15 568.9 360.6 618.75 390.7 618.75 452.6 618.75 468.7 608.9 487.85 598.95 507.3 581.95 523.9 563.75 541.75 541.75 551.9 517.5 563.25 492.3 563.25
L 106.35 563.25 231.8 288.15 318.25 288.15 228.85 484.25 388.2 484.4
Q 395.8 484.3 405.5 480.7 417.15 476.4 426.75 468.55 452.15 447.45 452.8 410 453.4 374.35 423.9 353.1 414.65 346.45 403.5 342.1
L 394.2 339
Q 431.6 325.95 450.75 306.45 467.3 289.65 467.7 271.2 468.1 254.5 455.7 242.95 443.5 231.35 425.65 231.35
L 32.75 231.35 32.75 654.7
Q 32.75 668.1 42.2 677.55 51.7 687.05 65.1 687.05
L 652.45 687.05
Q 665.85 687.05 675.3 677.55 684.8 668.1 684.8 654.7
L 684.8 67.35
Q 684.8 53.95 675.3 44.45 Z"/>
</g>

<g id="Layer2_0_FILL">
<path fill="url(#Gradient_1)" stroke="none" d="
M 675.3 44.45
Q 665.85 35 652.45 35
L 65.1 35
Q 51.7 35 42.2 44.45 32.75 53.95 32.75 67.35
L 32.75 654.7
Q 32.75 668.1 42.2 677.55 51.7 687.05 65.1 687.05
L 652.45 687.05
Q 665.85 687.05 675.3 677.55 684.8 668.1 684.8 654.7
L 684.8 67.35
Q 684.8 53.95 675.3 44.45 Z"/>
</g>

<g id="shading_0_Layer1_0_FILL">
<path fill="url(#Gradient_2)" stroke="none" d="
M 239.15 -215.4
Q 239.15 -225.2 232.2 -232.2 225.25 -239.1 215.45 -239.1
L -215.35 -239.1
Q -225.2 -239.1 -232.15 -232.2 -239.1 -225.2 -239.1 -215.4
L -239.1 -152.5 145.75 -152.55
Q 185.7 -152.55 209.15 -132.5 219.4 -123.7 224.7 -112.3 229.75 -101.3 229.5 -89.65 228.65 -52.2 197.3 -29.15 187.5 -21.95 175.8 -17.05
L 166.1 -13.6 173.85 -11.05
Q 183.1 -7 190.85 0.35 215.6 23.9 215.6 71.75 215.6 84.25 207.45 101.05 199.1 118.2 185.35 133.45 170.4 150.1 153.1 159.7 133.6 170.5 114.25 170.5
L -216.35 170.55 -106.6 -69.7 -11.2 -69.55 -81.7 85.1 22.15 85.3
Q 27.95 85.3 34.15 81.85 40.5 78.3 45.65 72 57.75 57.25 57.75 36.25 57.75 12.9 31.45 -4.7 18.25 -13.5 5.1 -17.6 32.35 -26 49.05 -38.85 63.4 -49.9 67.5 -62.2 71.2 -73.3 65.5 -81.1 59.85 -88.8 48.05 -88.75
L -239.1 -88.7 -239.1 215.4
Q -239.1 225.25 -232.15 232.15 -225.2 239.15 -215.35 239.15
L 215.45 239.15
Q 225.25 239.15 232.2 232.15 239.15 225.25 239.15 215.4
L 239.15 -215.4 Z"/>
</g>
</defs>

<mask id="Mask_Mask_1">
<g transform="matrix( 1, 0, 0, 1, 0,0) ">
<use xlink:href="#Mask_2_MASK_0_FILL"/>
</g>
</mask>

<g mask="url(#Mask_Mask_1)">
<g transform="matrix( 1, 0, 0, 1, 0,0) ">
<use xlink:href="#Layer2_0_FILL"/>
</g>
</g>

<g mask="url(#Mask_Mask_1)">
<g transform="matrix( 1.293914794921875, 0, 0, 1.293914794921875, 358.7,361) ">
<g transform="matrix( 1, 0, 0, 1, 0,0) ">
<use xlink:href="#shading_0_Layer1_0_FILL"/>
</g>
</g>
</g>
</svg>
